<svg id="圖層_1" data-name="圖層 1" xmlns="http://www.w3.org/2000/svg" viewBox="0 0 576 512"><defs><style>.cls-1{fill:#fff;}</style></defs><path class="cls-1" d="M246.9,23.7a32,32,0,1,0-61.8,16.6L238,237.8a14.5,14.5,0,0,1-27.9,7.9l-43.5-143a32,32,0,0,0-61.2,18.6l62.8,206.4a8,8,0,0,1-13.2,8.1L99.6,283a40,40,0,1,0-55.2,58L156.8,448a231.81,231.81,0,0,0,160,64h19.1a.1.1,0,0,0,.1-.1l.1-.1a139.49,139.49,0,0,0,125.3-99.7l81.2-275a32,32,0,0,0-61.4-18.2L443.5,247.1a12.5,12.5,0,0,1-24.2-6.2l36-170.3a32,32,0,1,0-62.6-13.2L355.1,235.1a26.33,26.33,0,0,1-51.2,1.4l-57-212.8Z"/></svg>